<svg width="181" height="51" viewBox="0 0 181 51" fill="none" xmlns="http://www.w3.org/2000/svg">
<path fill-rule="evenodd" clip-rule="evenodd" d="M17.4227 11.5938L27.6714 15.0935L30.9879 18.3816L42.743 21.3793L40.9804 21.9836L14.2532 18.9573L0 30.9888L6.66399 20.1659L4.95114 11.5819L8.05895 0L17.4227 11.5938Z" fill="url(#paint0_linear)"/>
<path fill-rule="evenodd" clip-rule="evenodd" d="M39.6186 24.7601L41.7822 22.4189L39.0065 24.3104C39.0065 24.3104 26.7532 26.4778 25.1589 28.1171C23.5647 29.7563 24.9217 38.3714 26.5159 41.4024C25.5243 41.1003 23.522 39.1494 22.9147 38.2096C20.0678 40.5317 18.0869 45.4732 16.8533 50.0198C18.0869 47.467 21.254 41.7165 22.853 40.6839C24.7509 42.3494 27.4862 43.3439 28.8931 43.1607C26.013 38.1073 25.0332 30.6271 26.013 29.0854C26.9928 27.5437 39.6186 24.7601 39.6186 24.7601Z" fill="url(#paint1_linear)"/>
<path fill-rule="evenodd" clip-rule="evenodd" d="M22.4521 16.6852L25.764 16.4497L27.3724 17.9819L22.4521 16.6852Z" fill="white"/>
<path fill-rule="evenodd" clip-rule="evenodd" d="M9.10517 4.00635L15.9376 11.9124L13.067 13.1305L9.39459 17.1299L7.34961 11.3318L9.10517 4.00635Z" fill="url(#paint2_linear)"/>
<path fill-rule="evenodd" clip-rule="evenodd" d="M21.8259 27.822C25.8993 24.4079 38.2949 23.7917 38.2949 23.7917L42.7407 21.3721L36.9332 23.3634L18.1369 21.9121C13.3921 23.2778 11.2048 26.8846 10.2891 29.9205L14.0303 28.3121L10.2891 35.1118C13.098 37.5529 14.8583 43.3462 15.6862 49.6415L16.2413 50.5242C16.4999 39.8797 17.5414 31.4051 21.8259 27.822Z" fill="url(#paint3_linear)"/>
<path fill-rule="evenodd" clip-rule="evenodd" d="M42.7429 21.3794L38.2947 23.7919C38.2947 23.7919 25.8991 24.4081 21.8257 27.8222C17.5555 31.391 16.5093 39.8799 16.2483 50.5244L16.8438 50.0081C18.0774 45.4615 20.0512 40.5199 22.9052 38.1978C23.5101 39.1495 25.5148 41.0909 26.5064 41.3907C24.9122 38.362 23.5576 29.7327 25.1494 28.1053C26.7413 26.478 38.997 24.2987 38.997 24.2987L41.7726 22.4072L42.7429 21.3794Z" fill="white"/>
<path fill-rule="evenodd" clip-rule="evenodd" d="M10.289 35.1122L14.0302 28.3125L10.2866 29.9327C10.9129 27.8366 12.1489 25.4765 14.3979 23.7635C14.8196 23.4422 15.2645 23.1527 15.7288 22.8974C15.9676 22.7658 16.216 22.6413 16.4738 22.5239C17.0116 22.2794 17.5666 22.0751 18.1344 21.9125L35.5856 23.2662L36.9331 23.3709L40.2188 22.2456L40.9804 21.9838L14.2532 18.9575L0 30.989C10.1111 36.2232 14.6518 46.4728 15.679 49.6442C14.8534 43.3489 13.0955 37.5532 10.289 35.1122Z" fill="url(#paint4_linear)"/>
<path fill-rule="evenodd" clip-rule="evenodd" d="M49.1994 31.4909L57.0634 25.2978H50.4921L51.4511 20.5552H65.6902L65.0399 23.7863C64.9601 24.1801 64.744 24.5329 64.429 24.7808L56.9542 30.6735H63.8672L62.899 35.415H48L48.5881 32.4866C48.6675 32.0923 48.884 31.7392 49.1994 31.4909Z" fill="#F04E23"/>
<path fill-rule="evenodd" clip-rule="evenodd" d="M91.5283 39.4763L94.5715 35.9529C98.665 38.4718 102.945 37.5832 103.236 34.237C101.632 35.4458 99.8425 35.6861 97.9999 35.3314C94.5289 34.662 92.4394 31.5977 92.8585 27.9315C93.4263 22.9681 98.5326 19.4092 103.353 20.6672C104.131 20.8699 105.202 21.325 105.803 21.8269L105.938 21.1555C106.009 20.8064 106.314 20.5548 106.67 20.5548H111.221C111.221 20.5548 108.862 32.4531 108.093 35.4814C107.023 39.6974 104.463 41.6577 100.117 41.8476C97.8755 41.9464 95.6697 41.7656 93.6129 40.7823C92.9036 40.4432 92.2684 39.9465 91.5283 39.4763ZM101.205 30.7911C103.051 30.7743 104.577 29.4051 104.588 27.7572C104.598 26.2788 103.321 25.1407 101.679 25.1651C99.8313 25.1923 98.2491 26.6747 98.2986 28.3322C98.3416 29.7954 99.5367 30.8063 101.205 30.7911Z" fill="#F04E23"/>
<path fill-rule="evenodd" clip-rule="evenodd" d="M118.115 41.0405H112.863L116.868 21.1557C116.939 20.8066 117.245 20.555 117.6 20.555H122.257L121.959 21.9563C123.424 20.4807 125.555 20.11 127.511 20.6178C131.675 21.6987 133.561 26.3062 131.598 30.5218C129.911 34.1456 126.151 36.1478 122.239 35.4028C121.332 35.2301 120.166 34.7566 119.494 34.1948L118.115 41.0405ZM123.47 30.791C125.292 30.7706 126.742 29.3854 126.724 27.6822C126.708 26.1839 125.526 25.1278 123.907 25.1653C122.082 25.2073 120.619 26.6089 120.646 28.2897C120.67 29.7948 121.815 30.8093 123.47 30.791Z" fill="#F04E23"/>
<path fill-rule="evenodd" clip-rule="evenodd" d="M155.453 21.7819L155.579 21.1557C155.649 20.8066 155.956 20.555 156.311 20.555H160.894C160.894 20.555 159.411 27.8598 159.202 28.9359C159.05 29.7216 159.015 30.2911 159.46 30.5782C159.904 30.8653 160.463 30.7677 160.628 30.6874C160.42 31.7179 159.975 33.9256 159.775 34.9162C159.712 35.2293 159.46 35.4648 159.145 35.508C158.577 35.5864 157.63 35.6564 156.694 35.4548C155.684 35.2369 154.726 34.6646 154.158 33.8485C152.426 35.4304 150.363 35.8531 148.141 35.4776C144.274 34.823 141.976 31.5371 142.588 27.639C143.355 22.7444 148.398 19.3994 153.139 20.6878C153.885 20.8905 154.79 21.2888 155.453 21.7819ZM150.934 30.7925C152.77 30.7805 154.278 29.3905 154.263 27.7238C154.249 26.2458 153.039 25.1501 151.438 25.1657C149.623 25.1833 148.13 26.5849 148.132 28.268C148.133 29.7864 149.262 30.8029 150.934 30.7925Z" fill="#F04E23"/>
<path fill-rule="evenodd" clip-rule="evenodd" d="M169.518 29.9589L174.156 21.5253C174.485 20.9267 175.113 20.5552 175.794 20.5552H180.451C180.451 20.5552 173.862 31.9052 170.801 37.0973C170.409 37.7631 169.995 38.4205 169.537 39.0407C167.67 41.5612 164.976 42.5102 161.947 41.7388C161.735 41.6844 161.535 41.5812 161.26 41.4745L162.037 37.5988C162.847 37.8279 163.536 37.8331 164.234 37.7155C165.211 37.5512 165.997 36.5595 165.77 35.5869C164.642 30.7535 162.269 20.5668 162.269 20.5668L167.039 20.5568C167.396 20.556 167.704 20.8087 167.774 21.1602L169.518 29.9589Z" fill="#F04E23"/>
<path fill-rule="evenodd" clip-rule="evenodd" d="M79.2685 35.4147H73.8604C74.3097 33.1661 74.744 30.9359 75.1898 28.739C75.5905 26.7599 76.4195 22.6839 76.7313 21.1535C76.8019 20.8048 77.1077 20.5549 77.4626 20.5549H82.2678L81.9078 22.3432C83.2938 20.5565 85.0734 20.0638 86.9798 20.2925C89.8894 20.6412 91.5214 23.1781 90.9305 26.472C90.7654 27.3921 90.5525 28.3039 90.3962 29.2252C90.2622 30.0142 90.2542 30.7676 91.4066 30.7908C91.1973 31.8417 90.7862 33.8955 90.5904 34.8728C90.5242 35.2039 90.2459 35.4463 89.9105 35.4718C88.8718 35.5498 86.6867 35.5926 85.6671 34.7045C84.2185 33.4424 84.3911 32.1124 84.7309 30.0146C84.8609 29.2128 85.0315 28.4166 85.2062 27.6233C85.5224 26.1869 85.325 25.4495 84.496 25.066C83.5673 24.6365 82.2072 24.9232 81.584 25.7882C81.2562 26.2429 80.9005 27.3421 80.9005 27.3421L79.2685 35.4147Z" fill="#F04E23"/>
<path fill-rule="evenodd" clip-rule="evenodd" d="M137.385 14.9155H142.216L139.418 28.7584C139.185 29.8005 139.27 30.5223 139.716 30.833C140.349 31.2737 141.43 31.015 141.625 30.8802L140.809 34.9227C140.747 35.2294 140.502 35.4637 140.195 35.5137C139.088 35.6944 136.457 35.9584 134.966 34.7355C132.941 33.0764 133.636 30.4839 133.888 29.2327L136.653 15.5158C136.723 15.1667 137.029 14.9155 137.385 14.9155Z" fill="#F04E23"/>
<path fill-rule="evenodd" clip-rule="evenodd" d="M73.601 20.5552L71.9099 28.9356C71.6851 29.9245 71.7604 30.34 72.0778 30.5635C72.4092 30.7975 72.6042 30.7795 72.8773 30.7711C72.6584 31.8636 72.2421 33.9166 72.0451 34.8867C71.9785 35.2142 71.7046 35.4558 71.372 35.4834C70.3596 35.5677 68.2371 35.6113 67.1187 34.664C65.617 33.3919 66.0026 31.3121 66.2973 29.7974C66.6015 28.2322 67.6741 22.9457 68.0378 21.1542C68.1083 20.8055 68.4142 20.5552 68.7691 20.5552H73.601Z" fill="#F04E23"/>
<path fill-rule="evenodd" clip-rule="evenodd" d="M68.5723 16.2552C68.5831 14.5093 70.0915 13.0174 71.8631 13.0002C73.4545 12.9846 74.6376 14.1422 74.634 15.713C74.6304 17.4729 73.1387 18.9433 71.3448 18.9549C69.7339 18.9653 68.5624 17.8248 68.5723 16.2552Z" fill="#F04E23"/>
<defs>
<linearGradient id="paint0_linear" x1="3.4945" y1="15.4956" x2="42.4797" y2="15.4956" gradientUnits="userSpaceOnUse">
<stop stop-color="#A71C20"/>
<stop offset="0.21" stop-color="#D93E22"/>
<stop offset="0.33" stop-color="#F04E23"/>
<stop offset="0.34" stop-color="#F05023"/>
<stop offset="0.55" stop-color="#F67D1C"/>
<stop offset="0.74" stop-color="#FA9E17"/>
<stop offset="0.89" stop-color="#FCB214"/>
<stop offset="1" stop-color="#FDB913"/>
</linearGradient>
<linearGradient id="paint1_linear" x1="13.7217" y1="36.2134" x2="37.5261" y2="36.2134" gradientUnits="userSpaceOnUse">
<stop offset="0.01" stop-color="#A71C20"/>
<stop offset="0.18" stop-color="#C43021"/>
<stop offset="0.39" stop-color="#E44623"/>
<stop offset="0.51" stop-color="#F04E23"/>
<stop offset="0.8" stop-color="#FDB913"/>
</linearGradient>
<linearGradient id="paint2_linear" x1="14.1583" y1="8.71951" x2="4.59042" y2="10.2626" gradientUnits="userSpaceOnUse">
<stop stop-color="#A71C20"/>
<stop offset="0.21" stop-color="#DB3F22"/>
<stop offset="0.31" stop-color="#F04E23"/>
<stop offset="0.32" stop-color="#F05023"/>
<stop offset="0.54" stop-color="#F67D1C"/>
<stop offset="0.73" stop-color="#FA9E17"/>
<stop offset="0.89" stop-color="#FCB214"/>
<stop offset="1" stop-color="#FDB913"/>
</linearGradient>
<linearGradient id="paint3_linear" x1="20.7251" y1="47.386" x2="26.7111" y2="19.5416" gradientUnits="userSpaceOnUse">
<stop stop-color="white"/>
<stop offset="0.48" stop-color="#FDD1B0"/>
<stop offset="0.85" stop-color="white"/>
</linearGradient>
<linearGradient id="paint4_linear" x1="0.709339" y1="34.3009" x2="39.844" y2="34.3009" gradientUnits="userSpaceOnUse">
<stop offset="0.11" stop-color="#A71C20"/>
<stop offset="0.27" stop-color="#C43021"/>
<stop offset="0.48" stop-color="#E44623"/>
<stop offset="0.6" stop-color="#F04E23"/>
<stop offset="0.87" stop-color="#FDB913"/>
</linearGradient>
</defs>
</svg>
